<svg xmlns="http://www.w3.org/2000/svg" xmlns:xlink="http://www.w3.org/1999/xlink" width="40" zoomAndPan="magnify" viewBox="0 0 30 30.000001" height="40" preserveAspectRatio="xMidYMid meet" version="1.0"><defs><clipPath id="7b92a5366d"><path d="M 3 20 L 7 20 L 7 26.128906 L 3 26.128906 Z M 3 20 " clip-rule="nonzero"/></clipPath><clipPath id="48047eb93b"><path d="M 13 21 L 18 21 L 18 26.128906 L 13 26.128906 Z M 13 21 " clip-rule="nonzero"/></clipPath><clipPath id="aa1e13bd67"><path d="M 8 18 L 13 18 L 13 26.128906 L 8 26.128906 Z M 8 18 " clip-rule="nonzero"/></clipPath><clipPath id="0f12e2c6cc"><path d="M 18 15 L 23 15 L 23 26.128906 L 18 26.128906 Z M 18 15 " clip-rule="nonzero"/></clipPath><clipPath id="23256f0bae"><path d="M 23 12 L 28 12 L 28 26.128906 L 23 26.128906 Z M 23 12 " clip-rule="nonzero"/></clipPath><clipPath id="110fe1a72b"><path d="M 0.484375 2.902344 L 29.515625 2.902344 L 29.515625 22 L 0.484375 22 Z M 0.484375 2.902344 " clip-rule="nonzero"/></clipPath><clipPath id="f5e5516c91"><path d="M 19.789062 15 L 23 15 L 23 26.128906 L 19.789062 26.128906 Z M 19.789062 15 " clip-rule="nonzero"/></clipPath><clipPath id="837ec3c5c8"><path d="M 23 12 L 28 12 L 28 26.128906 L 23 26.128906 Z M 23 12 " clip-rule="nonzero"/></clipPath><clipPath id="be4502a4a5"><path d="M 19.789062 2.902344 L 29.226562 2.902344 L 29.226562 22 L 19.789062 22 Z M 19.789062 2.902344 " clip-rule="nonzero"/></clipPath><clipPath id="11cd260d27"><path d="M 13 21 L 18 21 L 18 26.128906 L 13 26.128906 Z M 13 21 " clip-rule="nonzero"/></clipPath><clipPath id="755769125c"><path d="M 9.917969 18 L 13 18 L 13 26.128906 L 9.917969 26.128906 Z M 9.917969 18 " clip-rule="nonzero"/></clipPath><clipPath id="763216c979"><path d="M 18 15 L 20.804688 15 L 20.804688 26.128906 L 18 26.128906 Z M 18 15 " clip-rule="nonzero"/></clipPath><clipPath id="0ab7c2250e"><path d="M 9.917969 3.265625 L 20.804688 3.265625 L 20.804688 22 L 9.917969 22 Z M 9.917969 3.265625 " clip-rule="nonzero"/></clipPath></defs><g clip-path="url(#7b92a5366d)"><path fill="#ff3131" d="M 6.878906 20.753906 C 6.878906 20.726562 6.867188 20.707031 6.839844 20.699219 C 6.816406 20.6875 6.792969 20.691406 6.773438 20.710938 L 3.121094 24.363281 C 3.109375 24.375 3.101562 24.390625 3.101562 24.40625 L 3.101562 25.992188 C 3.101562 26.082031 3.148438 26.125 3.234375 26.125 L 6.75 26.125 C 6.835938 26.125 6.878906 26.082031 6.878906 25.992188 Z M 6.878906 20.753906 " fill-opacity="1" fill-rule="nonzero"/></g><g clip-path="url(#48047eb93b)"><path fill="#ff3131" d="M 17.308594 21.074219 C 17.308594 21.046875 17.296875 21.027344 17.273438 21.019531 C 17.246094 21.007812 17.226562 21.011719 17.207031 21.03125 L 14.910156 23.328125 C 14.882812 23.355469 14.851562 23.355469 14.824219 23.328125 L 13.640625 22.140625 C 13.621094 22.121094 13.597656 22.117188 13.570312 22.128906 C 13.546875 22.140625 13.535156 22.15625 13.535156 22.183594 L 13.535156 25.992188 C 13.535156 26.082031 13.578125 26.125 13.664062 26.125 L 17.179688 26.125 C 17.265625 26.125 17.308594 26.082031 17.308594 25.992188 Z M 17.308594 21.074219 " fill-opacity="1" fill-rule="nonzero"/></g><g clip-path="url(#aa1e13bd67)"><path fill="#ff3131" d="M 12.09375 20.621094 C 12.09375 20.605469 12.089844 20.589844 12.078125 20.578125 L 9.628906 18.132812 C 9.539062 18.039062 9.445312 18.039062 9.351562 18.132812 L 8.335938 19.148438 C 8.324219 19.160156 8.320312 19.175781 8.320312 19.191406 L 8.320312 25.992188 C 8.320312 26.082031 8.363281 26.125 8.449219 26.125 L 11.964844 26.125 C 12.050781 26.125 12.09375 26.082031 12.09375 25.992188 Z M 12.09375 20.621094 " fill-opacity="1" fill-rule="nonzero"/></g><g clip-path="url(#0f12e2c6cc)"><path fill="#ff3131" d="M 22.527344 15.859375 C 22.527344 15.832031 22.511719 15.8125 22.488281 15.800781 C 22.460938 15.792969 22.441406 15.796875 22.421875 15.816406 L 18.769531 19.46875 C 18.757812 19.480469 18.75 19.496094 18.75 19.511719 L 18.75 25.992188 C 18.75 26.082031 18.792969 26.125 18.878906 26.125 L 22.394531 26.125 C 22.484375 26.125 22.527344 26.082031 22.527344 25.992188 Z M 22.527344 15.859375 " fill-opacity="1" fill-rule="nonzero"/></g><g clip-path="url(#23256f0bae)"><path fill="#ff3131" d="M 27.742188 15.003906 C 27.742188 14.988281 27.734375 14.972656 27.722656 14.960938 L 25.636719 12.878906 C 25.546875 12.785156 25.453125 12.785156 25.359375 12.878906 L 23.984375 14.253906 C 23.972656 14.265625 23.964844 14.28125 23.964844 14.296875 L 23.964844 25.992188 C 23.964844 26.082031 24.007812 26.125 24.097656 26.125 L 27.613281 26.125 C 27.699219 26.125 27.742188 26.082031 27.742188 25.992188 Z M 27.742188 15.003906 " fill-opacity="1" fill-rule="nonzero"/></g><g clip-path="url(#110fe1a72b)"><path fill="#ff3131" d="M 29.285156 2.917969 L 20.859375 4.539062 C 20.785156 4.554688 20.738281 4.597656 20.714844 4.667969 C 20.691406 4.742188 20.707031 4.804688 20.761719 4.859375 L 22.828125 6.925781 L 15.007812 14.75 C 14.914062 14.839844 14.820312 14.839844 14.726562 14.75 L 9.671875 9.691406 C 9.621094 9.640625 9.5625 9.617188 9.492188 9.617188 C 9.421875 9.617188 9.359375 9.640625 9.3125 9.691406 L 0.558594 18.445312 C 0.507812 18.492188 0.484375 18.554688 0.484375 18.625 C 0.484375 18.695312 0.507812 18.753906 0.558594 18.804688 L 2.867188 21.113281 C 2.917969 21.164062 2.976562 21.1875 3.046875 21.1875 C 3.117188 21.1875 3.179688 21.164062 3.226562 21.113281 L 9.351562 14.988281 C 9.445312 14.898438 9.539062 14.898438 9.628906 14.988281 L 14.6875 20.046875 C 14.738281 20.097656 14.796875 20.121094 14.867188 20.121094 C 14.9375 20.121094 14.996094 20.097656 15.046875 20.046875 L 25.5 9.59375 L 27.566406 11.660156 C 27.621094 11.714844 27.683594 11.730469 27.753906 11.707031 C 27.828125 11.6875 27.871094 11.636719 27.882812 11.5625 L 29.507812 3.140625 C 29.519531 3.074219 29.5 3.015625 29.453125 2.96875 C 29.40625 2.921875 29.351562 2.90625 29.285156 2.917969 Z M 29.285156 2.917969 " fill-opacity="1" fill-rule="nonzero"/></g><g clip-path="url(#f5e5516c91)"><path fill="#00bf63" d="M 22.527344 15.859375 C 22.527344 15.832031 22.511719 15.8125 22.488281 15.800781 C 22.460938 15.792969 22.441406 15.796875 22.421875 15.816406 L 18.769531 19.46875 C 18.757812 19.480469 18.75 19.496094 18.75 19.511719 L 18.75 25.992188 C 18.75 26.082031 18.792969 26.125 18.878906 26.125 L 22.394531 26.125 C 22.484375 26.125 22.527344 26.082031 22.527344 25.992188 Z M 22.527344 15.859375 " fill-opacity="1" fill-rule="nonzero"/></g><g clip-path="url(#837ec3c5c8)"><path fill="#00bf63" d="M 27.742188 15.003906 C 27.742188 14.988281 27.734375 14.972656 27.722656 14.960938 L 25.636719 12.878906 C 25.546875 12.785156 25.453125 12.785156 25.359375 12.878906 L 23.984375 14.253906 C 23.972656 14.265625 23.964844 14.28125 23.964844 14.296875 L 23.964844 25.992188 C 23.964844 26.082031 24.007812 26.125 24.097656 26.125 L 27.613281 26.125 C 27.699219 26.125 27.742188 26.082031 27.742188 25.992188 Z M 27.742188 15.003906 " fill-opacity="1" fill-rule="nonzero"/></g><g clip-path="url(#be4502a4a5)"><path fill="#00bf63" d="M 29.285156 2.917969 L 20.859375 4.539062 C 20.785156 4.554688 20.738281 4.597656 20.714844 4.667969 C 20.691406 4.742188 20.707031 4.804688 20.761719 4.859375 L 22.828125 6.925781 L 15.007812 14.75 C 14.914062 14.839844 14.820312 14.839844 14.726562 14.75 L 9.671875 9.691406 C 9.621094 9.640625 9.5625 9.617188 9.492188 9.617188 C 9.421875 9.617188 9.359375 9.640625 9.3125 9.691406 L 0.558594 18.445312 C 0.507812 18.492188 0.484375 18.554688 0.484375 18.625 C 0.484375 18.695312 0.507812 18.753906 0.558594 18.804688 L 2.867188 21.113281 C 2.917969 21.164062 2.976562 21.1875 3.046875 21.1875 C 3.117188 21.1875 3.179688 21.164062 3.226562 21.113281 L 9.351562 14.988281 C 9.445312 14.898438 9.539062 14.898438 9.628906 14.988281 L 14.6875 20.046875 C 14.738281 20.097656 14.796875 20.121094 14.867188 20.121094 C 14.9375 20.121094 14.996094 20.097656 15.046875 20.046875 L 25.5 9.59375 L 27.566406 11.660156 C 27.621094 11.714844 27.683594 11.730469 27.753906 11.707031 C 27.828125 11.6875 27.871094 11.636719 27.882812 11.5625 L 29.507812 3.140625 C 29.519531 3.074219 29.5 3.015625 29.453125 2.96875 C 29.40625 2.921875 29.351562 2.90625 29.285156 2.917969 Z M 29.285156 2.917969 " fill-opacity="1" fill-rule="nonzero"/></g><g clip-path="url(#11cd260d27)"><path fill="#5271ff" d="M 17.308594 21.074219 C 17.308594 21.046875 17.296875 21.027344 17.273438 21.019531 C 17.246094 21.007812 17.226562 21.011719 17.207031 21.03125 L 14.910156 23.328125 C 14.882812 23.355469 14.851562 23.355469 14.824219 23.328125 L 13.640625 22.140625 C 13.621094 22.121094 13.597656 22.117188 13.570312 22.128906 C 13.546875 22.140625 13.535156 22.15625 13.535156 22.183594 L 13.535156 25.992188 C 13.535156 26.082031 13.578125 26.125 13.664062 26.125 L 17.179688 26.125 C 17.265625 26.125 17.308594 26.082031 17.308594 25.992188 Z M 17.308594 21.074219 " fill-opacity="1" fill-rule="nonzero"/></g><g clip-path="url(#755769125c)"><path fill="#5271ff" d="M 12.09375 20.621094 C 12.09375 20.605469 12.089844 20.589844 12.078125 20.578125 L 9.628906 18.132812 C 9.539062 18.039062 9.445312 18.039062 9.351562 18.132812 L 8.335938 19.148438 C 8.324219 19.160156 8.320312 19.175781 8.320312 19.191406 L 8.320312 25.992188 C 8.320312 26.082031 8.363281 26.125 8.449219 26.125 L 11.964844 26.125 C 12.050781 26.125 12.09375 26.082031 12.09375 25.992188 Z M 12.09375 20.621094 " fill-opacity="1" fill-rule="nonzero"/></g><g clip-path="url(#763216c979)"><path fill="#5271ff" d="M 22.527344 15.859375 C 22.527344 15.832031 22.511719 15.8125 22.488281 15.800781 C 22.460938 15.792969 22.441406 15.796875 22.421875 15.816406 L 18.769531 19.46875 C 18.757812 19.480469 18.75 19.496094 18.75 19.511719 L 18.75 25.992188 C 18.75 26.082031 18.792969 26.125 18.878906 26.125 L 22.394531 26.125 C 22.484375 26.125 22.527344 26.082031 22.527344 25.992188 Z M 22.527344 15.859375 " fill-opacity="1" fill-rule="nonzero"/></g><g clip-path="url(#0ab7c2250e)"><path fill="#5271ff" d="M 29.285156 2.917969 L 20.859375 4.539062 C 20.785156 4.554688 20.738281 4.597656 20.714844 4.667969 C 20.691406 4.742188 20.707031 4.804688 20.761719 4.859375 L 22.828125 6.925781 L 15.007812 14.75 C 14.914062 14.839844 14.820312 14.839844 14.726562 14.75 L 9.671875 9.691406 C 9.621094 9.640625 9.5625 9.617188 9.492188 9.617188 C 9.421875 9.617188 9.359375 9.640625 9.3125 9.691406 L 0.558594 18.445312 C 0.507812 18.492188 0.484375 18.554688 0.484375 18.625 C 0.484375 18.695312 0.507812 18.753906 0.558594 18.804688 L 2.867188 21.113281 C 2.917969 21.164062 2.976562 21.1875 3.046875 21.1875 C 3.117188 21.1875 3.179688 21.164062 3.226562 21.113281 L 9.351562 14.988281 C 9.445312 14.898438 9.539062 14.898438 9.628906 14.988281 L 14.6875 20.046875 C 14.738281 20.097656 14.796875 20.121094 14.867188 20.121094 C 14.9375 20.121094 14.996094 20.097656 15.046875 20.046875 L 25.5 9.59375 L 27.566406 11.660156 C 27.621094 11.714844 27.683594 11.730469 27.753906 11.707031 C 27.828125 11.6875 27.871094 11.636719 27.882812 11.5625 L 29.507812 3.140625 C 29.519531 3.074219 29.5 3.015625 29.453125 2.96875 C 29.40625 2.921875 29.351562 2.90625 29.285156 2.917969 Z M 29.285156 2.917969 " fill-opacity="1" fill-rule="nonzero"/></g></svg>